HIERARCHY
ROOT hip
{
	OFFSET 0.000000 0.000000 0.000000 
	CHANNELS 6 Xposition Yposition Zposition Xrotation Zrotation Yrotation
	JOINT abdomen
	{
		OFFSET 0.000000 3.402643 0.000000 
		CHANNELS 3 Xrotation Zrotation Yrotation
		JOINT chest
		{
			OFFSET 0.000000 8.438565 -0.680529 
			CHANNELS 3 Xrotation Zrotation Yrotation
			JOINT neck
			{
				OFFSET 0.000000 10.207942 -0.272212 
				CHANNELS 3 Xrotation Zrotation Yrotation
				JOINT head
				{
					OFFSET 0.000000 3.130431 0.000000 
					CHANNELS 3 Xrotation Zrotation Yrotation
					End Site
					{
						OFFSET 0.000000 3.130435 0.000000 
					}
				}
			}
			JOINT lCollar
			{
				OFFSET 3.470700 6.669187 -0.816635 
				CHANNELS 3 Yrotation Zrotation Xrotation
				JOINT lShldr
				{
					OFFSET 3.198488 0.000000 0.000000 
					CHANNELS 3 Zrotation Yrotation Xrotation
					JOINT lForeArm
					{
						OFFSET 10.139888 0.000000 0.000000 
						CHANNELS 3 Yrotation Zrotation Xrotation
						JOINT lHand
						{
							OFFSET 8.370511 0.000000 0.000000 
							CHANNELS 3 Zrotation Yrotation Xrotation
							End Site
							{
								OFFSET 4.083176 0.000000 0.000000 
							}
						}
					}
				}
			}
			JOINT rCollar
			{
				OFFSET -3.470700 6.669187 -0.816635 
				CHANNELS 3 Yrotation Zrotation Xrotation
				JOINT rShldr
				{
					OFFSET -3.198488 0.000000 0.000000 
					CHANNELS 3 Zrotation Yrotation Xrotation
					JOINT rForeArm
					{
						OFFSET -10.139888 0.000000 0.000000 
						CHANNELS 3 Yrotation Zrotation Xrotation
						JOINT rHand
						{
							OFFSET -8.370511 0.000000 0.000000 
							CHANNELS 3 Zrotation Yrotation Xrotation
							End Site
							{
								OFFSET -4.083176 0.000000 0.000000 
							}
						}
					}
				}
			}
		}
	}
	JOINT lThigh
	{
		OFFSET 5.308129 -1.633274 1.361059 
		CHANNELS 3 Xrotation Zrotation Yrotation
		JOINT lShin
		{
			OFFSET -2.041588 -20.007561 0.000000 
			CHANNELS 3 Xrotation Zrotation Yrotation
			JOINT lFoot
			{
				OFFSET 0.000000 -19.190928 -1.224953 
				CHANNELS 3 Xrotation Yrotation Zrotation
				End Site
				{
					OFFSET 0.000000 -2.449906 4.627600 
				}
			}
		}
	}
	JOINT rThigh
	{
		OFFSET -5.308129 -1.633274 1.361059 
		CHANNELS 3 Xrotation Zrotation Yrotation
		JOINT rShin
		{
			OFFSET 2.041588 -20.007561 0.000000 
			CHANNELS 3 Xrotation Zrotation Yrotation
			JOINT rFoot
			{
				OFFSET 0.000000 -19.190928 -1.224953 
				CHANNELS 3 Xrotation Yrotation Zrotation
				End Site
				{
					OFFSET 0.000000 -2.449906 4.627600 
				}
			}
		}
	}
}
MOTION
Frames: 18
Frame Time: 0.033333
-6.020130 45.174656 -54.971020 5.087891 -9.677734 54.832344 21.982422 3.828125 1.944011 -14.921873 3.095703 1.104043 -8.964844 -5.087891 -27.989147 8.281249 10.390624 -28.388674 2.626953 2.021484 0.068359 -68.583984 -6.005859 38.916012 -78.691406 -1.660156 -2.812500 -4.042969 -5.400391 0.439453 -2.978516 2.558594 -0.234811 57.832031 7.304688 -15.535865 42.656250 2.812500 -25.595701 -13.867188 15.839842 -3.552022 -28.398046 19.052462 10.182221 46.856140 -0.723226 -2.677601 -20.840864 5.904437 -2.689992 -44.607292 -17.743176 -13.363112 56.495705 -0.361185 2.978121 -12.362289 -10.319897 2.382119 
-6.013452 45.179783 -54.957787 4.912109 -9.667969 54.842110 21.982422 3.828125 1.944011 -14.912109 3.271484 1.113281 -8.964844 -5.439453 -27.959909 8.457032 10.566407 -28.386879 2.626953 1.845703 0.077810 -68.652344 -5.947266 38.758755 -78.857422 -1.611328 -2.646484 -3.681640 -5.244141 0.243248 -2.978516 2.558594 -0.234811 57.832031 7.304688 -15.535865 42.646481 2.929687 -25.468754 -13.867188 15.839842 -3.552022 -28.401930 19.056599 10.013403 46.849846 -0.589210 -2.825699 -20.800739 6.152430 -2.958192 -44.429836 -17.741720 -13.199609 56.498932 -0.361332 3.152364 -12.549775 -10.330131 2.380827 
-6.008563 45.181572 -54.947056 5.087891 -9.677734 54.832344 22.158203 3.662110 1.884766 -14.912109 3.447266 1.113281 -8.964845 -5.615234 -27.949217 8.281250 10.566407 -28.386879 2.451172 1.669922 0.097656 -68.525391 -5.976563 38.680626 -79.033203 -1.777344 -2.607422 -3.681641 -4.892579 0.243308 -2.802734 2.558594 -0.244141 57.666016 7.255858 -15.594469 42.656250 2.812500 -25.595701 -13.828126 15.878907 -3.388672 -28.198259 19.038404 10.019880 46.657177 -0.774620 -3.037149 -20.777164 6.262248 -2.667737 -44.371826 -17.869089 -13.316020 56.495705 -0.361184 2.978121 -12.684335 -10.135463 2.470836 
-6.000216 45.185268 -54.930004 4.912109 -9.667969 54.842110 22.158201 3.828125 1.943359 -15.087892 3.632813 1.103516 -8.613282 -5.966797 -27.919924 8.281250 10.917969 -28.386822 2.285156 1.318359 -0.068359 -68.300781 -5.703125 38.661137 -79.394531 -1.621094 -2.821989 -3.496094 -4.365234 0.233632 -2.802735 2.207031 -0.263672 57.695313 7.236328 -15.683591 42.656250 2.812500 -25.595701 -13.876952 16.015625 -3.551991 -28.257830 18.912416 10.241591 46.668003 -0.596221 -2.984152 -20.813055 6.041791 -2.810404 -44.361378 -17.858772 -13.483186 56.498932 -0.361329 3.152366 -12.579524 -10.287683 2.400245 
-5.998071 45.190151 -54.913906 5.087891 -9.677734 54.832344 22.158201 3.828125 1.943359 -15.087892 3.632813 0.927734 -8.447267 -6.142578 -27.890625 7.919922 11.093751 -28.572340 2.109375 1.318359 -0.058818 -68.193359 -5.566407 38.652344 -79.755859 -1.669922 -3.164063 -3.320313 -3.671875 0.223984 -2.626953 2.207031 -0.263672 57.714840 7.080078 -15.595700 42.568359 2.890625 -25.839844 -13.886718 16.191408 -3.551963 -28.061356 18.891712 10.090943 46.668068 -0.589109 -2.981246 -20.799183 6.110779 -2.769789 -44.361378 -17.858780 -13.483184 56.495705 -0.361188 2.978120 -12.727888 -10.413774 2.322654 
-5.986145 45.193615 -54.892918 5.087891 -9.501953 54.842140 22.333984 3.828125 1.943359 -15.263673 3.281250 0.927734 -8.085938 -5.966797 -27.919922 7.744140 11.093751 -28.583982 1.933594 1.669922 -0.068644 -68.144531 -5.458984 38.866264 -79.931641 -1.660156 -3.164078 -3.320313 -3.671875 0.223984 -2.451172 2.382813 -0.263672 57.802731 6.621094 -15.410155 42.792969 2.812500 -26.084463 -14.218751 15.820313 -3.574219 -28.064154 18.894361 10.266275 46.482651 -0.589314 -2.971950 -20.791798 6.097787 -2.777337 -44.371826 -17.869091 -13.316019 56.495705 -0.361187 2.978120 -12.543373 -10.290699 2.183912 
-5.977799 45.194809 -54.869671 5.087891 -9.501953 54.842140 22.333984 3.828125 1.943359 -15.625002 2.929688 0.917969 -7.382812 -5.439453 -27.959911 7.392578 11.269531 -28.417967 1.757813 2.021484 -0.078125 -68.017578 -5.400391 39.218750 -79.580078 -1.679688 -3.163776 -3.496094 -4.365234 0.233632 -2.099609 2.548828 -0.273872 58.085938 6.171875 -15.244139 43.017578 2.861328 -26.191895 -14.560546 15.625000 -3.581352 -27.936533 18.766781 10.137794 46.498039 -0.716018 -2.840260 -20.753334 6.326775 -2.629380 -44.371830 -17.869085 -13.316021 56.495705 -0.361187 2.978120 -12.650459 -10.509632 2.291030 
-5.963013 45.191586 -54.843670 5.273438 -9.492042 54.461708 22.333984 3.828125 1.943359 -15.800780 2.578125 0.918408 -7.216797 -5.253907 -27.783201 7.216797 11.269532 -28.427731 1.572266 2.373047 0.097252 -68.525391 -6.044921 39.862251 -79.082031 -1.806641 -3.681641 -3.857422 -4.892579 0.253906 -2.099609 2.373047 -0.283608 58.486328 6.113281 -14.452085 43.603519 2.949219 -26.914566 -15.136719 15.546875 -3.825508 -27.936529 18.766790 10.137795 46.673706 -0.716044 -2.849331 -20.701149 6.616700 -2.681883 -44.429836 -17.741720 -13.199609 56.497063 -0.536882 3.081528 -12.594679 -10.303076 2.402924 
-5.959556 45.176918 -54.812191 5.273438 -9.492042 54.110146 22.333984 3.769531 2.109375 -15.800780 2.578125 1.094189 -7.060547 -5.410157 -27.597654 6.865234 11.445313 -28.259779 1.396484 2.548828 0.106988 -69.101563 -7.343750 41.308594 -78.759766 -1.796875 -4.403991 -3.671875 -4.365235 0.244141 -2.099609 2.373047 -0.283608 58.837894 6.093750 -13.416930 44.638676 2.968750 -27.998552 -15.654299 15.341797 -3.847656 -27.788919 18.970793 10.232180 46.842766 -0.791416 -3.044041 -20.702169 6.650522 -2.639170 -44.644295 -17.751381 -13.020140 56.665672 -0.683487 3.167949 -12.413310 -10.517041 2.286154 
-5.948704 45.162491 -54.783936 5.449219 -9.326172 53.582409 22.333984 3.769531 2.109375 -15.800780 2.402344 1.094159 -7.089843 -5.380859 -27.247007 6.865234 11.445313 -27.908218 1.396484 2.900391 0.097162 -69.716797 -9.111327 43.564453 -78.564453 -1.699219 -3.886719 -4.199219 -4.189453 0.273437 -1.923828 2.373047 -0.292969 59.355473 6.005859 -12.079057 46.269527 2.919922 -29.335939 -16.230469 15.439453 -4.033203 -27.568354 18.925817 10.654510 46.673527 -0.732439 -2.856019 -21.148212 6.973266 -2.225869 -45.057808 -17.333725 -12.212685 56.680779 -0.351340 3.001003 -12.438740 -10.505171 2.312759 
-5.955621 45.137924 -54.767597 5.625000 -9.326172 52.703499 22.519531 3.994141 2.002633 -15.800780 2.050781 0.918318 -7.128906 -5.693359 -26.700188 6.679688 11.796876 -27.380814 1.220703 3.076172 0.097656 -70.869141 -11.552734 46.259762 -78.164063 -1.650391 -2.646484 -4.550781 -3.662110 0.292969 -1.933594 2.021484 -0.127298 60.283203 6.474609 -10.097657 48.271484 2.919922 -31.161892 -16.220703 15.263673 -4.033203 -27.238920 18.947708 11.421768 46.670734 -0.901789 -2.944557 -21.279566 7.243359 -2.468363 -45.477432 -16.854860 -11.504748 56.690075 -0.369329 3.001810 -12.460700 -10.536749 2.502506 
-5.978157 45.107758 -54.781189 5.791016 -9.501953 51.669922 22.529297 4.218750 1.895250 -15.976563 2.050781 0.742537 -7.382813 -6.328125 -25.771486 6.855469 12.148438 -26.501850 1.044922 3.076172 0.107422 -72.470703 -14.833984 49.472660 -77.392578 -1.640625 -0.849614 -4.902344 -2.451172 0.146484 -1.582031 1.494141 -0.146484 61.630859 7.285157 -7.498760 50.791019 2.968750 -33.857925 -14.726563 15.439453 -3.591150 -26.787266 19.375248 12.747628 46.670902 -0.599299 -3.169697 -21.537901 6.957213 -2.415220 -46.089333 -16.276976 -10.922916 56.853493 -0.361302 2.819770 -12.237122 -10.223205 2.648220 
-6.014287 45.063164 -54.850945 6.152343 -9.501953 50.449219 22.539061 4.667969 1.679688 -16.328125 1.523438 0.205078 -7.812500 -6.767579 -24.658201 7.031250 12.148437 -25.615234 1.220703 3.251953 0.097102 -74.687500 -18.789063 53.209747 -75.908203 -1.445313 2.177981 -4.726563 -1.064453 -0.039063 -1.230469 0.966797 -0.166180 63.271484 8.593750 -4.041510 53.964844 3.222656 -37.128906 -14.580077 15.800780 -3.581325 -26.804506 20.231735 14.864450 47.011185 -0.413746 -2.916451 -21.504377 6.137194 -2.729294 -46.849026 -16.305201 -10.862371 56.863205 -0.371145 2.815105 -12.073311 -9.462565 2.874981 
-6.066991 44.993053 -55.017048 6.679687 -9.677735 49.003910 22.734375 5.009766 1.241087 -16.503906 1.171875 -0.322066 -8.261718 -7.021484 -23.409399 7.216797 11.972657 -24.382738 1.044922 3.427734 0.106838 -76.865234 -23.222654 56.865231 -74.296875 -1.191406 6.133015 -4.042969 1.914063 -0.244141 -1.054688 0.439453 -0.175781 65.234375 10.820313 -0.712891 57.431641 3.261719 -40.722656 -14.228516 15.996095 -3.571526 -27.175995 21.140097 17.484993 47.889000 -0.423693 -2.973142 -21.384226 4.596982 -3.476938 -48.020489 -16.100103 -10.975973 57.039654 -0.353156 2.812880 -11.561961 -8.190473 3.173225 
-6.109800 44.877506 -55.294399 7.373046 -9.677734 47.285156 22.929686 5.517578 0.869141 -17.216799 0.468750 -0.869139 -8.701173 -6.914062 -22.158203 7.041016 11.445313 -22.976574 0.869141 4.306641 0.096923 -79.394531 -27.900391 59.741520 -72.773438 -0.937500 9.951173 -3.212890 4.882813 -0.477683 -0.888672 0.087891 -0.185547 67.246094 13.818359 2.678115 61.064453 3.398438 -44.921875 -13.876952 16.015625 -3.551991 -27.587393 22.274595 20.030539 49.309906 -0.609259 -2.930443 -21.362429 2.409443 -4.398986 -49.314022 -16.668659 -11.356565 57.029125 -0.361337 2.827507 -10.848818 -6.787295 3.520562 
-6.106460 44.706036 -55.683842 8.251954 -9.501954 45.349949 23.115234 5.634766 0.538068 -17.919922 -0.048828 -1.230477 -8.964844 -6.806641 -20.938658 7.216797 11.093751 -21.748047 0.507813 5.361320 0.116275 -81.748047 -32.304688 61.328125 -70.937508 -0.800781 12.041017 -0.927734 6.318359 -0.428613 -0.537109 -0.449219 -0.009689 69.091797 17.685547 5.898438 64.404297 3.427734 -48.506443 -13.593751 17.089844 -3.583984 -28.093933 23.297461 22.383139 51.041737 -0.268032 -3.049186 -21.218487 -0.441284 -5.518452 -51.035370 -17.168438 -11.651476 57.392693 -0.349845 3.043035 -10.081244 -4.795265 4.101111 
-6.040283 44.473156 -56.159977 8.955077 -9.316406 43.417973 23.291016 5.693359 0.371094 -18.623047 -0.224609 -1.416016 -9.042969 -6.894531 -19.853514 7.216797 10.566407 -20.693359 0.312500 6.591797 0.302734 -84.140625 -36.835941 61.849617 -69.189453 -0.781250 11.572264 2.851563 7.744141 0.069677 -0.185547 -1.152344 -0.009766 70.917969 21.874998 8.577857 67.500000 3.496094 -51.445911 -13.115233 19.169922 -3.942106 -28.053473 24.075584 23.252813 53.507500 -0.277944 -3.513726 -21.107964 -2.547038 -6.177583 -52.863998 -17.916023 -11.703206 57.910072 -0.371120 3.045227 -8.999249 -2.793916 4.312789 
-5.902678 44.183640 -56.685593 9.306641 -8.798828 41.482880 23.466797 5.693360 0.371094 -18.974611 -0.048828 -1.416016 -8.935546 -6.806641 -18.809753 7.216797 10.039063 -19.812750 0.478516 7.822255 0.272109 -85.253906 -41.650391 61.113281 -68.027344 -1.171875 8.203125 6.757813 10.468750 0.919745 -0.009766 -2.207031 -0.009766 72.724609 26.796875 9.770027 70.761719 3.466797 -54.707027 -13.066407 20.195314 -4.160156 -27.731361 25.013115 23.001888 56.496513 -0.239163 -3.295857 -21.219992 -3.500720 -6.752046 -54.210960 -18.589525 -11.204294 58.434414 -0.214928 2.977958 -8.126005 -0.965678 5.145417 
